<svg width="1440" height="800" viewBox="0 0 1440 800" fill="none" xmlns="http://www.w3.org/2000/svg">
<rect width="1440" height="800" fill="#131518"/>
<g clip-path="url(#clip0_0_1469)">
<rect x="514" y="195" width="412" height="416" rx="30" fill="url(#paint0_radial_0_1469)"/>
<circle cx="570" cy="251" r="24" fill="#262E38"/>
<path d="M571.067 243.43L573.057 247.461C573.169 247.689 573.386 247.847 573.638 247.883L578.087 248.53C578.377 248.572 578.619 248.776 578.71 249.055C578.8 249.335 578.724 249.641 578.514 249.846L575.294 252.984C575.112 253.162 575.03 253.417 575.072 253.667L575.832 258.098C575.882 258.388 575.763 258.68 575.525 258.853C575.287 259.025 574.972 259.048 574.713 258.911L570.733 256.819C570.508 256.701 570.239 256.701 570.014 256.819L566.035 258.911C565.775 259.048 565.46 259.025 565.222 258.853C564.985 258.68 564.866 258.388 564.915 258.098L565.675 253.667C565.718 253.417 565.635 253.161 565.453 252.984L562.233 249.846C562.023 249.641 561.947 249.335 562.038 249.055C562.128 248.776 562.37 248.572 562.661 248.53L567.11 247.883C567.361 247.847 567.578 247.689 567.691 247.461L569.68 243.43C569.966 242.857 570.784 242.857 571.067 243.43Z" fill="#FC7614"/>
<g clip-path="url(#clip1_0_1469)">
<rect x="546" y="534" width="341" height="45" rx="22.5" fill="#FC7614"/>
<path d="M687.665 562.18C687.01 562.18 686.415 562.065 685.88 561.835C685.345 561.605 684.885 561.28 684.5 560.86C684.12 560.435 683.835 559.935 683.645 559.36L685.408 558.707C685.633 559.187 685.945 559.582 686.345 559.892C686.75 560.197 687.205 560.35 687.71 560.35C688.245 560.35 688.67 560.237 688.985 560.012C689.305 559.787 689.465 559.46 689.465 559.03C689.465 558.735 689.37 558.49 689.18 558.295C688.995 558.095 688.743 557.925 688.423 557.785C688.108 557.64 687.75 557.5 687.35 557.365C686.965 557.235 686.578 557.09 686.188 556.93C685.798 556.77 685.44 556.575 685.115 556.345C684.79 556.11 684.528 555.815 684.328 555.46C684.133 555.105 684.035 554.67 684.035 554.155C684.035 553.64 684.173 553.167 684.448 552.737C684.723 552.307 685.12 551.965 685.64 551.71C686.165 551.45 686.8 551.32 687.545 551.32C688.155 551.32 688.695 551.425 689.165 551.635C689.64 551.84 690.033 552.12 690.343 552.475C690.653 552.83 690.868 553.232 690.988 553.682L689.248 554.26C689.108 553.945 688.893 553.682 688.603 553.472C688.318 553.257 687.93 553.15 687.44 553.15C686.98 553.15 686.623 553.24 686.368 553.42C686.113 553.6 685.985 553.855 685.985 554.185C685.985 554.41 686.07 554.602 686.24 554.762C686.415 554.917 686.648 555.057 686.938 555.182C687.233 555.307 687.565 555.435 687.935 555.565C688.35 555.705 688.763 555.865 689.173 556.045C689.588 556.22 689.963 556.435 690.298 556.69C690.638 556.945 690.91 557.262 691.115 557.642C691.32 558.017 691.423 558.477 691.423 559.022C691.423 559.692 691.255 560.262 690.92 560.732C690.59 561.202 690.143 561.562 689.578 561.812C689.013 562.058 688.375 562.18 687.665 562.18ZM699.539 562.18C698.659 562.18 697.907 562.017 697.282 561.692C696.662 561.362 696.187 560.885 695.857 560.26C695.532 559.635 695.369 558.88 695.369 557.995V551.5H697.312V557.995C697.312 558.79 697.489 559.375 697.844 559.75C698.199 560.125 698.764 560.312 699.539 560.312C700.029 560.312 700.439 560.235 700.769 560.08C701.099 559.925 701.347 559.677 701.512 559.337C701.677 558.992 701.759 558.545 701.759 557.995V551.5H703.709V557.995C703.709 558.735 703.599 559.37 703.379 559.9C703.164 560.43 702.864 560.865 702.479 561.205C702.099 561.54 701.657 561.787 701.152 561.947C700.647 562.103 700.109 562.18 699.539 562.18ZM708.123 562V551.5H712.653C713.508 551.5 714.183 551.637 714.678 551.912C715.173 552.182 715.525 552.535 715.735 552.97C715.945 553.4 716.05 553.85 716.05 554.32C716.05 554.79 715.948 555.22 715.743 555.61C715.538 555.995 715.203 556.292 714.738 556.502C715.118 556.637 715.43 556.832 715.675 557.087C715.925 557.337 716.108 557.622 716.223 557.942C716.343 558.257 716.403 558.577 716.403 558.902C716.403 559.272 716.34 559.642 716.215 560.012C716.095 560.377 715.898 560.71 715.623 561.01C715.348 561.31 714.983 561.55 714.528 561.73C714.078 561.91 713.523 562 712.863 562H708.123ZM710.065 560.177H712.99C713.365 560.177 713.658 560.112 713.868 559.982C714.083 559.852 714.233 559.69 714.318 559.495C714.408 559.295 714.453 559.097 714.453 558.902C714.453 558.662 714.4 558.435 714.295 558.22C714.195 558 714.008 557.82 713.733 557.68C713.463 557.54 713.07 557.47 712.555 557.47H710.065V560.177ZM710.065 555.722H712.413C712.983 555.722 713.403 555.612 713.673 555.392C713.948 555.167 714.085 554.87 714.085 554.5C714.085 554.31 714.05 554.125 713.98 553.945C713.91 553.76 713.775 553.607 713.575 553.487C713.375 553.367 713.08 553.307 712.69 553.307H710.065V555.722ZM725.251 562.18L722.566 556.33C722.531 556.255 722.493 556.167 722.453 556.067C722.413 555.967 722.378 555.867 722.348 555.767C722.353 555.847 722.356 555.942 722.356 556.052C722.361 556.162 722.363 556.26 722.363 556.345V562H720.421V551.5H722.363L725.026 557.455C725.076 557.565 725.121 557.675 725.161 557.785C725.206 557.89 725.248 558 725.288 558.115C725.328 558 725.368 557.887 725.408 557.777C725.448 557.667 725.491 557.56 725.536 557.455L728.251 551.5H730.073V562H728.131V556.33C728.131 556.24 728.131 556.14 728.131 556.03C728.136 555.92 728.138 555.83 728.138 555.76C728.108 555.85 728.071 555.947 728.026 556.052C727.986 556.152 727.946 556.245 727.906 556.33L725.251 562.18ZM734.535 562V551.5H736.478V562H734.535ZM743.239 562V553.367H740.262V551.5H748.174V553.367H745.182V562H743.239Z" fill="#131518"/>
</g>
<path d="M560.308 336V327.488H551.74V336H548.38V316.4H551.74V324.324H560.308V316.4H563.64V336H560.308ZM573.968 336.336C571.952 336.336 570.356 335.673 569.18 334.348C568.004 333.023 567.416 331.193 567.416 328.86C567.416 326.527 568.004 324.697 569.18 323.372C570.356 322.028 571.952 321.356 573.968 321.356C575.984 321.356 577.58 322.028 578.756 323.372C579.95 324.697 580.548 326.527 580.548 328.86C580.548 331.193 579.96 333.023 578.784 334.348C577.608 335.673 576.002 336.336 573.968 336.336ZM573.968 333.2C574.994 333.2 575.797 332.817 576.376 332.052C576.973 331.287 577.272 330.223 577.272 328.86C577.272 327.497 576.973 326.424 576.376 325.64C575.797 324.856 574.994 324.464 573.968 324.464C572.978 324.464 572.185 324.865 571.588 325.668C570.99 326.452 570.692 327.516 570.692 328.86C570.692 330.204 570.981 331.268 571.56 332.052C572.157 332.817 572.96 333.2 573.968 333.2ZM586.775 336L582.855 321.692H586.075L587.923 329.616C588.016 330.045 588.128 330.605 588.259 331.296C588.352 330.792 588.474 330.232 588.623 329.616L590.723 321.692H593.719L595.791 329.616C595.94 330.232 596.062 330.792 596.155 331.296C596.286 330.605 596.398 330.045 596.491 329.616L598.367 321.692H601.587L597.667 336H594.755L592.655 328.272C592.375 327.171 592.226 326.517 592.207 326.312C592.132 326.685 591.983 327.339 591.759 328.272L589.659 336H586.775ZM616.774 336.336C614.944 336.336 613.498 335.673 612.434 334.348C611.37 333.023 610.838 331.184 610.838 328.832C610.838 326.536 611.388 324.716 612.49 323.372C613.591 322.028 615.019 321.356 616.774 321.356C618.155 321.356 619.228 321.804 619.994 322.7V317.268L623.27 315.784V336H619.994V334.964C619.284 335.879 618.211 336.336 616.774 336.336ZM617.278 333.2C618.491 333.2 619.396 332.743 619.994 331.828V325.836C619.378 324.921 618.472 324.464 617.278 324.464C616.27 324.464 615.486 324.847 614.926 325.612C614.384 326.359 614.114 327.432 614.114 328.832C614.114 330.157 614.394 331.221 614.954 332.024C615.514 332.808 616.288 333.2 617.278 333.2ZM630.531 319.172C630.158 319.545 629.7 319.732 629.159 319.732C628.618 319.732 628.151 319.545 627.759 319.172C627.386 318.78 627.199 318.313 627.199 317.772C627.199 317.231 627.386 316.773 627.759 316.4C628.151 316.027 628.618 315.84 629.159 315.84C629.7 315.84 630.158 316.027 630.531 316.4C630.904 316.773 631.091 317.231 631.091 317.772C631.091 318.313 630.904 318.78 630.531 319.172ZM627.507 336V321.692H630.783V336H627.507ZM640.234 336.336C638.405 336.336 636.958 335.673 635.894 334.348C634.83 333.023 634.298 331.184 634.298 328.832C634.298 326.536 634.849 324.716 635.95 323.372C637.052 322.028 638.48 321.356 640.234 321.356C641.616 321.356 642.689 321.804 643.454 322.7V317.268L646.73 315.784V336H643.454V334.964C642.745 335.879 641.672 336.336 640.234 336.336ZM640.738 333.2C641.952 333.2 642.857 332.743 643.454 331.828V325.836C642.838 324.921 641.933 324.464 640.738 324.464C639.73 324.464 638.946 324.847 638.386 325.612C637.845 326.359 637.574 327.432 637.574 328.832C637.574 330.157 637.854 331.221 638.414 332.024C638.974 332.808 639.749 333.2 640.738 333.2ZM660.603 336L656.683 321.692H659.903L661.751 329.616C661.844 330.045 661.956 330.605 662.087 331.296C662.18 330.792 662.302 330.232 662.451 329.616L664.551 321.692H667.547L669.619 329.616C669.768 330.232 669.89 330.792 669.983 331.296C670.114 330.605 670.226 330.045 670.319 329.616L672.195 321.692H675.415L671.495 336H668.583L666.483 328.272C666.203 327.171 666.054 326.517 666.035 326.312C665.96 326.685 665.811 327.339 665.587 328.272L663.487 336H660.603ZM684.192 336.336C682.157 336.336 680.542 335.673 679.348 334.348C678.172 333.004 677.584 331.165 677.584 328.832C677.584 326.517 678.181 324.697 679.376 323.372C680.57 322.028 682.176 321.356 684.192 321.356C686.021 321.356 687.514 321.925 688.672 323.064C689.848 324.203 690.436 325.873 690.436 328.076C690.436 328.841 690.398 329.513 690.324 330.092H680.832C680.888 331.1 681.233 331.912 681.868 332.528C682.521 333.144 683.296 333.452 684.192 333.452C685.461 333.452 686.469 332.957 687.216 331.968L689.288 334.096C688.037 335.589 686.338 336.336 684.192 336.336ZM680.86 327.376H687.188C687.113 326.349 686.796 325.575 686.236 325.052C685.676 324.511 684.994 324.24 684.192 324.24C683.258 324.24 682.484 324.501 681.868 325.024C681.27 325.528 680.934 326.312 680.86 327.376ZM705.887 336.336C704.057 336.336 702.611 335.673 701.547 334.348C700.483 333.023 699.951 331.184 699.951 328.832C699.951 326.536 700.501 324.716 701.603 323.372C702.704 322.028 704.132 321.356 705.887 321.356C707.268 321.356 708.341 321.804 709.107 322.7V317.268L712.383 315.784V336H709.107V334.964C708.397 335.879 707.324 336.336 705.887 336.336ZM706.391 333.2C707.604 333.2 708.509 332.743 709.107 331.828V325.836C708.491 324.921 707.585 324.464 706.391 324.464C705.383 324.464 704.599 324.847 704.039 325.612C703.497 326.359 703.227 327.432 703.227 328.832C703.227 330.157 703.507 331.221 704.067 332.024C704.627 332.808 705.401 333.2 706.391 333.2ZM722.444 336.336C720.428 336.336 718.832 335.673 717.656 334.348C716.48 333.023 715.892 331.193 715.892 328.86C715.892 326.527 716.48 324.697 717.656 323.372C718.832 322.028 720.428 321.356 722.444 321.356C724.46 321.356 726.056 322.028 727.232 323.372C728.427 324.697 729.024 326.527 729.024 328.86C729.024 331.193 728.436 333.023 727.26 334.348C726.084 335.673 724.479 336.336 722.444 336.336ZM722.444 333.2C723.471 333.2 724.274 332.817 724.852 332.052C725.45 331.287 725.748 330.223 725.748 328.86C725.748 327.497 725.45 326.424 724.852 325.64C724.274 324.856 723.471 324.464 722.444 324.464C721.455 324.464 720.662 324.865 720.064 325.668C719.467 326.452 719.168 327.516 719.168 328.86C719.168 330.204 719.458 331.268 720.036 332.052C720.634 332.817 721.436 333.2 722.444 333.2ZM735.586 330.68V329.896C735.586 329.075 735.698 328.337 735.922 327.684C736.164 327.031 736.454 326.517 736.79 326.144C737.144 325.752 737.518 325.379 737.91 325.024C738.32 324.651 738.694 324.333 739.03 324.072C739.384 323.792 739.674 323.447 739.898 323.036C740.14 322.607 740.262 322.149 740.262 321.664C740.262 320.936 740.019 320.339 739.534 319.872C739.048 319.405 738.376 319.172 737.518 319.172C736.491 319.172 735.688 319.489 735.11 320.124C734.55 320.74 734.27 321.608 734.27 322.728H730.994C730.994 320.656 731.591 319.032 732.786 317.856C733.98 316.661 735.558 316.064 737.518 316.064C739.422 316.064 740.896 316.587 741.942 317.632C743.006 318.677 743.538 320.021 743.538 321.664C743.538 322.392 743.416 323.045 743.174 323.624C742.95 324.203 742.66 324.669 742.306 325.024C741.97 325.36 741.596 325.715 741.186 326.088C740.794 326.461 740.42 326.807 740.066 327.124C739.73 327.423 739.44 327.815 739.198 328.3C738.974 328.785 738.862 329.327 738.862 329.924V330.68H735.586ZM738.834 335.72C738.404 336.131 737.872 336.336 737.238 336.336C736.603 336.336 736.071 336.131 735.642 335.72C735.212 335.291 734.998 334.768 734.998 334.152C734.998 333.536 735.212 333.023 735.642 332.612C736.071 332.183 736.603 331.968 737.238 331.968C737.872 331.968 738.404 332.183 738.834 332.612C739.263 333.041 739.478 333.555 739.478 334.152C739.478 334.768 739.263 335.291 738.834 335.72Z" fill="white"/>
<path d="M547.47 372V361.5H551.49C552.1 361.5 552.63 361.59 553.08 361.77C553.54 361.95 553.895 362.195 554.145 362.505C554.395 362.805 554.58 363.135 554.7 363.495C554.82 363.855 554.88 364.24 554.88 364.65C554.88 365.48 554.595 366.21 554.025 366.84C553.465 367.47 552.62 367.785 551.49 367.785H548.775V372H547.47ZM551.58 366.57C552.26 366.57 552.76 366.38 553.08 366C553.41 365.62 553.575 365.17 553.575 364.65C553.575 364.14 553.42 363.69 553.11 363.3C552.8 362.91 552.29 362.715 551.58 362.715H548.775V366.57H551.58ZM556.768 372V361.785L558.073 361.17V372H556.768ZM563.574 372.18C562.534 372.18 561.704 371.81 561.084 371.07C560.474 370.32 560.169 369.35 560.169 368.16C560.169 366.91 560.479 365.93 561.099 365.22C561.719 364.51 562.544 364.155 563.574 364.155C564.494 364.155 565.249 364.465 565.839 365.085C566.439 365.695 566.739 366.6 566.739 367.8C566.739 368.08 566.724 368.37 566.694 368.67H561.504C561.554 369.37 561.769 369.935 562.149 370.365C562.539 370.785 563.024 370.995 563.604 370.995C564.244 370.995 564.794 370.765 565.254 370.305L566.049 371.19C565.389 371.85 564.564 372.18 563.574 372.18ZM561.489 367.56H565.419C565.409 366.77 565.219 366.2 564.849 365.85C564.489 365.49 564.064 365.31 563.574 365.31C562.984 365.31 562.499 365.5 562.119 365.88C561.739 366.25 561.529 366.81 561.489 367.56ZM573.085 372V371.295C572.455 371.885 571.73 372.18 570.91 372.18C570.1 372.18 569.45 371.96 568.96 371.52C568.48 371.07 568.24 370.43 568.24 369.6C568.24 368.77 568.515 368.14 569.065 367.71C569.615 367.28 570.295 367.065 571.105 367.065C571.845 367.065 572.505 367.23 573.085 367.56V367.02C573.085 366.38 572.94 365.935 572.65 365.685C572.37 365.425 571.96 365.295 571.42 365.295C570.65 365.295 569.905 365.55 569.185 366.06L568.81 364.965C569.63 364.425 570.555 364.155 571.585 364.155C573.405 364.155 574.315 365.075 574.315 366.915V372H573.085ZM571.105 371.025C571.855 371.025 572.515 370.69 573.085 370.02V368.7C572.535 368.36 571.935 368.19 571.285 368.19C570.755 368.19 570.32 368.31 569.98 368.55C569.64 368.79 569.47 369.14 569.47 369.6C569.47 370.03 569.61 370.375 569.89 370.635C570.18 370.895 570.585 371.025 571.105 371.025ZM578.851 372.18C578.301 372.18 577.776 372.065 577.276 371.835C576.786 371.595 576.386 371.28 576.076 370.89L577.006 370.095C577.576 370.705 578.201 371.01 578.881 371.01C579.311 371.01 579.656 370.93 579.916 370.77C580.176 370.6 580.306 370.355 580.306 370.035C580.306 369.795 580.211 369.58 580.021 369.39C579.831 369.19 579.636 369.045 579.436 368.955C579.236 368.855 578.941 368.73 578.551 368.58C577.771 368.29 577.181 367.965 576.781 367.605C576.381 367.245 576.181 366.77 576.181 366.18C576.181 365.56 576.421 365.07 576.901 364.71C577.391 364.34 578.011 364.155 578.761 364.155C579.831 364.155 580.691 364.54 581.341 365.31L580.441 366.06C579.971 365.57 579.406 365.325 578.746 365.325C578.356 365.325 578.046 365.4 577.816 365.55C577.586 365.7 577.471 365.91 577.471 366.18C577.471 366.33 577.506 366.47 577.576 366.6C577.656 366.72 577.791 366.835 577.981 366.945C578.181 367.055 578.336 367.14 578.446 367.2C578.566 367.25 578.781 367.335 579.091 367.455C579.901 367.745 580.516 368.075 580.936 368.445C581.366 368.815 581.581 369.335 581.581 370.005C581.581 370.685 581.336 371.22 580.846 371.61C580.356 371.99 579.691 372.18 578.851 372.18ZM586.572 372.18C585.532 372.18 584.702 371.81 584.082 371.07C583.472 370.32 583.167 369.35 583.167 368.16C583.167 366.91 583.477 365.93 584.097 365.22C584.717 364.51 585.542 364.155 586.572 364.155C587.492 364.155 588.247 364.465 588.837 365.085C589.437 365.695 589.737 366.6 589.737 367.8C589.737 368.08 589.722 368.37 589.692 368.67H584.502C584.552 369.37 584.767 369.935 585.147 370.365C585.537 370.785 586.022 370.995 586.602 370.995C587.242 370.995 587.792 370.765 588.252 370.305L589.047 371.19C588.387 371.85 587.562 372.18 586.572 372.18ZM584.487 367.56H588.417C588.407 366.77 588.217 366.2 587.847 365.85C587.487 365.49 587.062 365.31 586.572 365.31C585.982 365.31 585.497 365.5 585.117 365.88C584.737 366.25 584.527 366.81 584.487 367.56ZM595.294 372V361.785L596.599 361.17V372H595.294ZM602.099 372.18C601.059 372.18 600.229 371.81 599.609 371.07C598.999 370.32 598.694 369.35 598.694 368.16C598.694 366.91 599.004 365.93 599.624 365.22C600.244 364.51 601.069 364.155 602.099 364.155C603.019 364.155 603.774 364.465 604.364 365.085C604.964 365.695 605.264 366.6 605.264 367.8C605.264 368.08 605.249 368.37 605.219 368.67H600.029C600.079 369.37 600.294 369.935 600.674 370.365C601.064 370.785 601.549 370.995 602.129 370.995C602.769 370.995 603.319 370.765 603.779 370.305L604.574 371.19C603.914 371.85 603.089 372.18 602.099 372.18ZM600.014 367.56H603.944C603.934 366.77 603.744 366.2 603.374 365.85C603.014 365.49 602.589 365.31 602.099 365.31C601.509 365.31 601.024 365.5 600.644 365.88C600.264 366.25 600.054 366.81 600.014 367.56ZM609.139 372.18C608.059 372.18 607.519 371.57 607.519 370.35V365.475H606.274V364.335H607.519V361.8L608.824 361.17V364.335H610.714V365.475H608.824V369.915C608.824 370.255 608.879 370.515 608.989 370.695C609.099 370.875 609.309 370.965 609.619 370.965C609.959 370.965 610.339 370.83 610.759 370.56L610.609 371.835C610.169 372.065 609.679 372.18 609.139 372.18ZM620.86 372V371.265C620.39 371.875 619.745 372.18 618.925 372.18C617.995 372.18 617.295 371.91 616.825 371.37C616.365 370.83 616.135 369.96 616.135 368.76V364.335H617.44V368.955C617.44 369.645 617.585 370.155 617.875 370.485C618.175 370.805 618.58 370.965 619.09 370.965C620.27 370.965 620.86 370.305 620.86 368.985V364.335H622.165V372H620.86ZM626.927 372.18C626.377 372.18 625.852 372.065 625.352 371.835C624.862 371.595 624.462 371.28 624.152 370.89L625.082 370.095C625.652 370.705 626.277 371.01 626.957 371.01C627.387 371.01 627.732 370.93 627.992 370.77C628.252 370.6 628.382 370.355 628.382 370.035C628.382 369.795 628.287 369.58 628.097 369.39C627.907 369.19 627.712 369.045 627.512 368.955C627.312 368.855 627.017 368.73 626.627 368.58C625.847 368.29 625.257 367.965 624.857 367.605C624.457 367.245 624.257 366.77 624.257 366.18C624.257 365.56 624.497 365.07 624.977 364.71C625.467 364.34 626.087 364.155 626.837 364.155C627.907 364.155 628.767 364.54 629.417 365.31L628.517 366.06C628.047 365.57 627.482 365.325 626.822 365.325C626.432 365.325 626.122 365.4 625.892 365.55C625.662 365.7 625.547 365.91 625.547 366.18C625.547 366.33 625.582 366.47 625.652 366.6C625.732 366.72 625.867 366.835 626.057 366.945C626.257 367.055 626.412 367.14 626.522 367.2C626.642 367.25 626.857 367.335 627.167 367.455C627.977 367.745 628.592 368.075 629.012 368.445C629.442 368.815 629.657 369.335 629.657 370.005C629.657 370.685 629.412 371.22 628.922 371.61C628.432 371.99 627.767 372.18 626.927 372.18ZM641.449 372H640.024L637.654 367.365L636.529 368.535V372H635.224V361.785L636.529 361.17V366.975L639.019 364.335H640.579L638.569 366.42L641.449 372ZM647.917 372V367.365C647.917 366.675 647.767 366.17 647.467 365.85C647.177 365.52 646.777 365.355 646.267 365.355C645.087 365.355 644.497 366.015 644.497 367.335V372H643.192V364.335H644.497V365.115C644.967 364.475 645.627 364.155 646.477 364.155C647.377 364.155 648.057 364.43 648.517 364.98C648.987 365.52 649.222 366.39 649.222 367.59V372H647.917ZM657.059 371.115C656.449 371.825 655.624 372.18 654.584 372.18C653.544 372.18 652.719 371.825 652.109 371.115C651.499 370.405 651.194 369.425 651.194 368.175C651.194 366.925 651.499 365.945 652.109 365.235C652.719 364.515 653.544 364.155 654.584 364.155C655.624 364.155 656.449 364.51 657.059 365.22C657.669 365.93 657.974 366.91 657.974 368.16C657.974 369.41 657.669 370.395 657.059 371.115ZM653.054 370.23C653.424 370.72 653.934 370.965 654.584 370.965C655.234 370.965 655.739 370.72 656.099 370.23C656.469 369.73 656.654 369.04 656.654 368.16C656.654 367.29 656.469 366.605 656.099 366.105C655.739 365.605 655.234 365.355 654.584 365.355C653.934 365.355 653.424 365.605 653.054 366.105C652.694 366.595 652.514 367.285 652.514 368.175C652.514 369.045 652.694 369.73 653.054 370.23ZM661.299 372L659.334 364.335H660.624L661.794 369.48C661.804 369.54 661.829 369.665 661.869 369.855C661.909 370.045 661.939 370.19 661.959 370.29C661.979 370.15 662.044 369.88 662.154 369.48L663.594 364.335H664.674L666.114 369.48L666.324 370.32C666.344 370.23 666.369 370.09 666.399 369.9C666.439 369.71 666.469 369.57 666.489 369.48L667.644 364.335H668.934L666.969 372H665.799L664.404 367.455C664.264 367.005 664.169 366.67 664.119 366.45C664.019 366.87 663.929 367.205 663.849 367.455L662.469 372H661.299ZM674.262 372V361.77L675.567 361.17V365.13C676.037 364.48 676.697 364.155 677.547 364.155C678.447 364.155 679.127 364.43 679.587 364.98C680.057 365.52 680.292 366.39 680.292 367.59V372H678.987V367.365C678.987 366.675 678.837 366.17 678.537 365.85C678.247 365.52 677.847 365.355 677.337 365.355C676.157 365.355 675.567 366.015 675.567 367.335V372H674.262ZM688.129 371.115C687.519 371.825 686.694 372.18 685.654 372.18C684.614 372.18 683.789 371.825 683.179 371.115C682.569 370.405 682.264 369.425 682.264 368.175C682.264 366.925 682.569 365.945 683.179 365.235C683.789 364.515 684.614 364.155 685.654 364.155C686.694 364.155 687.519 364.51 688.129 365.22C688.739 365.93 689.044 366.91 689.044 368.16C689.044 369.41 688.739 370.395 688.129 371.115ZM684.124 370.23C684.494 370.72 685.004 370.965 685.654 370.965C686.304 370.965 686.809 370.72 687.169 370.23C687.539 369.73 687.724 369.04 687.724 368.16C687.724 367.29 687.539 366.605 687.169 366.105C686.809 365.605 686.304 365.355 685.654 365.355C685.004 365.355 684.494 365.605 684.124 366.105C683.764 366.595 683.584 367.285 683.584 368.175C683.584 369.045 683.764 369.73 684.124 370.23ZM692.368 372L690.403 364.335H691.693L692.863 369.48C692.873 369.54 692.898 369.665 692.938 369.855C692.978 370.045 693.008 370.19 693.028 370.29C693.048 370.15 693.113 369.88 693.223 369.48L694.663 364.335H695.743L697.183 369.48L697.393 370.32C697.413 370.23 697.438 370.09 697.468 369.9C697.508 369.71 697.538 369.57 697.558 369.48L698.713 364.335H700.003L698.038 372H696.868L695.473 367.455C695.333 367.005 695.238 366.67 695.188 366.45C695.088 366.87 694.998 367.205 694.918 367.455L693.538 372H692.368ZM706.621 372L704.656 364.335H705.946L707.116 369.48C707.126 369.54 707.151 369.665 707.191 369.855C707.231 370.045 707.261 370.19 707.281 370.29C707.301 370.15 707.366 369.88 707.476 369.48L708.916 364.335H709.996L711.436 369.48L711.646 370.32C711.666 370.23 711.691 370.09 711.721 369.9C711.761 369.71 711.791 369.57 711.811 369.48L712.966 364.335H714.256L712.291 372H711.121L709.726 367.455C709.586 367.005 709.491 366.67 709.441 366.45C709.341 366.87 709.251 367.205 709.171 367.455L707.791 372H706.621ZM718.862 372.18C717.822 372.18 716.992 371.81 716.372 371.07C715.762 370.32 715.457 369.35 715.457 368.16C715.457 366.91 715.767 365.93 716.387 365.22C717.007 364.51 717.832 364.155 718.862 364.155C719.782 364.155 720.537 364.465 721.127 365.085C721.727 365.695 722.027 366.6 722.027 367.8C722.027 368.08 722.012 368.37 721.982 368.67H716.792C716.842 369.37 717.057 369.935 717.437 370.365C717.827 370.785 718.312 370.995 718.892 370.995C719.532 370.995 720.082 370.765 720.542 370.305L721.337 371.19C720.677 371.85 719.852 372.18 718.862 372.18ZM716.777 367.56H720.707C720.697 366.77 720.507 366.2 720.137 365.85C719.777 365.49 719.352 365.31 718.862 365.31C718.272 365.31 717.787 365.5 717.407 365.88C717.027 366.25 716.817 366.81 716.777 367.56ZM730.224 372.18C729.254 372.18 728.484 371.82 727.914 371.1C727.344 370.38 727.059 369.4 727.059 368.16C727.059 366.91 727.344 365.93 727.914 365.22C728.494 364.51 729.264 364.155 730.224 364.155C730.974 364.155 731.619 364.395 732.159 364.875V361.785L733.464 361.17V372H732.159V371.4C731.659 371.92 731.014 372.18 730.224 372.18ZM730.404 370.965C731.164 370.965 731.749 370.62 732.159 369.93V366.33C731.749 365.68 731.164 365.355 730.404 365.355C729.754 365.355 729.254 365.6 728.904 366.09C728.554 366.57 728.379 367.26 728.379 368.16C728.379 368.97 728.559 369.64 728.919 370.17C729.289 370.7 729.784 370.965 730.404 370.965ZM737.177 362.715C737.017 362.865 736.822 362.94 736.592 362.94C736.362 362.94 736.167 362.86 736.007 362.7C735.857 362.54 735.782 362.35 735.782 362.13C735.782 361.9 735.862 361.705 736.022 361.545C736.182 361.375 736.372 361.29 736.592 361.29C736.822 361.29 737.017 361.375 737.177 361.545C737.337 361.705 737.417 361.9 737.417 362.13C737.417 362.36 737.337 362.555 737.177 362.715ZM735.947 372V364.335H737.252V372H735.947ZM742.455 372.18C741.485 372.18 740.715 371.82 740.145 371.1C739.575 370.38 739.29 369.4 739.29 368.16C739.29 366.91 739.575 365.93 740.145 365.22C740.725 364.51 741.495 364.155 742.455 364.155C743.205 364.155 743.85 364.395 744.39 364.875V361.785L745.695 361.17V372H744.39V371.4C743.89 371.92 743.245 372.18 742.455 372.18ZM742.635 370.965C743.395 370.965 743.98 370.62 744.39 369.93V366.33C743.98 365.68 743.395 365.355 742.635 365.355C741.985 365.355 741.485 365.6 741.135 366.09C740.785 366.57 740.61 367.26 740.61 368.16C740.61 368.97 740.79 369.64 741.15 370.17C741.52 370.7 742.015 370.965 742.635 370.965ZM752.983 372L751.018 364.335H752.308L753.478 369.48C753.488 369.54 753.513 369.665 753.553 369.855C753.593 370.045 753.623 370.19 753.643 370.29C753.663 370.15 753.728 369.88 753.838 369.48L755.278 364.335H756.358L757.798 369.48L758.008 370.32C758.028 370.23 758.053 370.09 758.083 369.9C758.123 369.71 758.153 369.57 758.173 369.48L759.328 364.335H760.618L758.653 372H757.483L756.088 367.455C755.948 367.005 755.853 366.67 755.803 366.45C755.703 366.87 755.613 367.205 755.533 367.455L754.153 372H752.983ZM763.661 362.715C763.501 362.865 763.306 362.94 763.076 362.94C762.846 362.94 762.651 362.86 762.491 362.7C762.341 362.54 762.266 362.35 762.266 362.13C762.266 361.9 762.346 361.705 762.506 361.545C762.666 361.375 762.856 361.29 763.076 361.29C763.306 361.29 763.501 361.375 763.661 361.545C763.821 361.705 763.901 361.9 763.901 362.13C763.901 362.36 763.821 362.555 763.661 362.715ZM762.431 372V364.335H763.736V372H762.431ZM768.294 372.18C767.214 372.18 766.674 371.57 766.674 370.35V365.475H765.429V364.335H766.674V361.8L767.979 361.17V364.335H769.869V365.475H767.979V369.915C767.979 370.255 768.034 370.515 768.144 370.695C768.254 370.875 768.464 370.965 768.774 370.965C769.114 370.965 769.494 370.83 769.914 370.56L769.764 371.835C769.324 372.065 768.834 372.18 768.294 372.18ZM771.835 372V361.77L773.14 361.17V365.13C773.61 364.48 774.27 364.155 775.12 364.155C776.02 364.155 776.7 364.43 777.16 364.98C777.63 365.52 777.865 366.39 777.865 367.59V372H776.56V367.365C776.56 366.675 776.41 366.17 776.11 365.85C775.82 365.52 775.42 365.355 774.91 365.355C773.73 365.355 773.14 366.015 773.14 367.335V372H771.835ZM784.732 374.91L785.902 371.805L783.067 364.335H784.372L786.277 369.555C786.347 369.725 786.427 369.97 786.517 370.29C786.607 369.97 786.687 369.725 786.757 369.555L788.692 364.335H790.027L786.052 374.91H784.732ZM797.186 371.115C796.576 371.825 795.751 372.18 794.711 372.18C793.671 372.18 792.846 371.825 792.236 371.115C791.626 370.405 791.321 369.425 791.321 368.175C791.321 366.925 791.626 365.945 792.236 365.235C792.846 364.515 793.671 364.155 794.711 364.155C795.751 364.155 796.576 364.51 797.186 365.22C797.796 365.93 798.101 366.91 798.101 368.16C798.101 369.41 797.796 370.395 797.186 371.115ZM793.181 370.23C793.551 370.72 794.061 370.965 794.711 370.965C795.361 370.965 795.866 370.72 796.226 370.23C796.596 369.73 796.781 369.04 796.781 368.16C796.781 367.29 796.596 366.605 796.226 366.105C795.866 365.605 795.361 365.355 794.711 365.355C794.061 365.355 793.551 365.605 793.181 366.105C792.821 366.595 792.641 367.285 792.641 368.175C792.641 369.045 792.821 369.73 793.181 370.23ZM804.786 372V371.265C804.316 371.875 803.671 372.18 802.851 372.18C801.921 372.18 801.221 371.91 800.751 371.37C800.291 370.83 800.061 369.96 800.061 368.76V364.335H801.366V368.955C801.366 369.645 801.511 370.155 801.801 370.485C802.101 370.805 802.506 370.965 803.016 370.965C804.196 370.965 804.786 370.305 804.786 368.985V364.335H806.091V372H804.786ZM808.588 372V364.335H809.893V365.34C810.253 364.55 810.858 364.155 811.708 364.155C812.188 364.155 812.583 364.285 812.893 364.545L812.698 365.775C812.378 365.555 812.013 365.445 811.603 365.445C811.153 365.445 810.753 365.62 810.403 365.97C810.063 366.32 809.893 366.89 809.893 367.68V372H808.588ZM820.213 372.18C819.663 372.18 819.138 372.065 818.638 371.835C818.148 371.595 817.748 371.28 817.438 370.89L818.368 370.095C818.938 370.705 819.563 371.01 820.243 371.01C820.673 371.01 821.018 370.93 821.278 370.77C821.538 370.6 821.668 370.355 821.668 370.035C821.668 369.795 821.573 369.58 821.383 369.39C821.193 369.19 820.998 369.045 820.798 368.955C820.598 368.855 820.303 368.73 819.913 368.58C819.133 368.29 818.543 367.965 818.143 367.605C817.743 367.245 817.543 366.77 817.543 366.18C817.543 365.56 817.783 365.07 818.263 364.71C818.753 364.34 819.373 364.155 820.123 364.155C821.193 364.155 822.053 364.54 822.703 365.31L821.803 366.06C821.333 365.57 820.768 365.325 820.108 365.325C819.718 365.325 819.408 365.4 819.178 365.55C818.948 365.7 818.833 365.91 818.833 366.18C818.833 366.33 818.868 366.47 818.938 366.6C819.018 366.72 819.153 366.835 819.343 366.945C819.543 367.055 819.698 367.14 819.808 367.2C819.928 367.25 820.143 367.335 820.453 367.455C821.263 367.745 821.878 368.075 822.298 368.445C822.728 368.815 822.943 369.335 822.943 370.005C822.943 370.685 822.698 371.22 822.208 371.61C821.718 371.99 821.053 372.18 820.213 372.18ZM829.629 372V371.265C829.159 371.875 828.514 372.18 827.694 372.18C826.764 372.18 826.064 371.91 825.594 371.37C825.134 370.83 824.904 369.96 824.904 368.76V364.335H826.209V368.955C826.209 369.645 826.354 370.155 826.644 370.485C826.944 370.805 827.349 370.965 827.859 370.965C829.039 370.965 829.629 370.305 829.629 368.985V364.335H830.934V372H829.629ZM836.702 372.18C835.902 372.18 835.247 371.88 834.737 371.28V374.415L833.432 375.03V364.335H834.737V364.98C835.287 364.43 835.942 364.155 836.702 364.155C837.672 364.155 838.442 364.515 839.012 365.235C839.582 365.955 839.867 366.93 839.867 368.16C839.867 369.41 839.577 370.395 838.997 371.115C838.417 371.825 837.652 372.18 836.702 372.18ZM836.537 370.965C837.177 370.965 837.667 370.725 838.007 370.245C838.357 369.755 838.532 369.06 838.532 368.16C838.532 367.31 838.352 366.63 837.992 366.12C837.642 365.61 837.157 365.355 836.537 365.355C835.727 365.355 835.127 365.7 834.737 366.39V369.93C835.267 370.62 835.867 370.965 836.537 370.965ZM845.168 372.18C844.368 372.18 843.713 371.88 843.203 371.28V374.415L841.898 375.03V364.335H843.203V364.98C843.753 364.43 844.408 364.155 845.168 364.155C846.138 364.155 846.908 364.515 847.478 365.235C848.048 365.955 848.333 366.93 848.333 368.16C848.333 369.41 848.043 370.395 847.463 371.115C846.883 371.825 846.118 372.18 845.168 372.18ZM845.003 370.965C845.643 370.965 846.133 370.725 846.473 370.245C846.823 369.755 846.998 369.06 846.998 368.16C846.998 367.31 846.818 366.63 846.458 366.12C846.108 365.61 845.623 365.355 845.003 365.355C844.193 365.355 843.593 365.7 843.203 366.39V369.93C843.733 370.62 844.333 370.965 845.003 370.965ZM855.78 371.115C855.17 371.825 854.345 372.18 853.305 372.18C852.265 372.18 851.44 371.825 850.83 371.115C850.22 370.405 849.915 369.425 849.915 368.175C849.915 366.925 850.22 365.945 850.83 365.235C851.44 364.515 852.265 364.155 853.305 364.155C854.345 364.155 855.17 364.51 855.78 365.22C856.39 365.93 856.695 366.91 856.695 368.16C856.695 369.41 856.39 370.395 855.78 371.115ZM851.775 370.23C852.145 370.72 852.655 370.965 853.305 370.965C853.955 370.965 854.46 370.72 854.82 370.23C855.19 369.73 855.375 369.04 855.375 368.16C855.375 367.29 855.19 366.605 854.82 366.105C854.46 365.605 853.955 365.355 853.305 365.355C852.655 365.355 852.145 365.605 851.775 366.105C851.415 366.595 851.235 367.285 851.235 368.175C851.235 369.045 851.415 369.73 851.775 370.23ZM858.729 372V364.335H860.034V365.34C860.394 364.55 860.999 364.155 861.849 364.155C862.329 364.155 862.724 364.285 863.034 364.545L862.839 365.775C862.519 365.555 862.154 365.445 861.744 365.445C861.294 365.445 860.894 365.62 860.544 365.97C860.204 366.32 860.034 366.89 860.034 367.68V372H858.729ZM866.849 372.18C865.769 372.18 865.229 371.57 865.229 370.35V365.475H863.984V364.335H865.229V361.8L866.534 361.17V364.335H868.424V365.475H866.534V369.915C866.534 370.255 866.589 370.515 866.699 370.695C866.809 370.875 867.019 370.965 867.329 370.965C867.669 370.965 868.049 370.83 868.469 370.56L868.319 371.835C867.879 372.065 867.389 372.18 866.849 372.18ZM547.245 396V388.335H548.55V389.34C548.91 388.55 549.515 388.155 550.365 388.155C550.845 388.155 551.24 388.285 551.55 388.545L551.355 389.775C551.035 389.555 550.67 389.445 550.26 389.445C549.81 389.445 549.41 389.62 549.06 389.97C548.72 390.32 548.55 390.89 548.55 391.68V396H547.245ZM556.03 396.18C554.99 396.18 554.16 395.81 553.54 395.07C552.93 394.32 552.625 393.35 552.625 392.16C552.625 390.91 552.935 389.93 553.555 389.22C554.175 388.51 555 388.155 556.03 388.155C556.95 388.155 557.705 388.465 558.295 389.085C558.895 389.695 559.195 390.6 559.195 391.8C559.195 392.08 559.18 392.37 559.15 392.67H553.96C554.01 393.37 554.225 393.935 554.605 394.365C554.995 394.785 555.48 394.995 556.06 394.995C556.7 394.995 557.25 394.765 557.71 394.305L558.505 395.19C557.845 395.85 557.02 396.18 556.03 396.18ZM553.945 391.56H557.875C557.865 390.77 557.675 390.2 557.305 389.85C556.945 389.49 556.52 389.31 556.03 389.31C555.44 389.31 554.955 389.5 554.575 389.88C554.195 390.25 553.985 390.81 553.945 391.56ZM563.876 396.18C562.906 396.18 562.131 395.825 561.551 395.115C560.981 394.405 560.696 393.425 560.696 392.175C560.696 390.935 560.976 389.955 561.536 389.235C562.096 388.515 562.861 388.155 563.831 388.155C564.541 388.155 565.201 388.43 565.811 388.98V388.335H567.116V398.415L565.811 399V395.28C565.281 395.88 564.636 396.18 563.876 396.18ZM563.996 394.965C564.666 394.965 565.271 394.615 565.811 393.915V390.39C565.401 389.7 564.796 389.355 563.996 389.355C563.386 389.355 562.901 389.62 562.541 390.15C562.191 390.68 562.016 391.355 562.016 392.175C562.016 393.075 562.186 393.765 562.526 394.245C562.866 394.725 563.356 394.965 563.996 394.965ZM574.249 396V395.265C573.779 395.875 573.134 396.18 572.314 396.18C571.384 396.18 570.684 395.91 570.214 395.37C569.754 394.83 569.524 393.96 569.524 392.76V388.335H570.829V392.955C570.829 393.645 570.974 394.155 571.264 394.485C571.564 394.805 571.969 394.965 572.479 394.965C573.659 394.965 574.249 394.305 574.249 392.985V388.335H575.554V396H574.249ZM581.006 396.18C579.966 396.18 579.136 395.81 578.516 395.07C577.906 394.32 577.601 393.35 577.601 392.16C577.601 390.91 577.911 389.93 578.531 389.22C579.151 388.51 579.976 388.155 581.006 388.155C581.926 388.155 582.681 388.465 583.271 389.085C583.871 389.695 584.171 390.6 584.171 391.8C584.171 392.08 584.156 392.37 584.126 392.67H578.936C578.986 393.37 579.201 393.935 579.581 394.365C579.971 394.785 580.456 394.995 581.036 394.995C581.676 394.995 582.226 394.765 582.686 394.305L583.481 395.19C582.821 395.85 581.996 396.18 581.006 396.18ZM578.921 391.56H582.851C582.841 390.77 582.651 390.2 582.281 389.85C581.921 389.49 581.496 389.31 581.006 389.31C580.416 389.31 579.931 389.5 579.551 389.88C579.171 390.25 578.961 390.81 578.921 391.56ZM588.387 396.18C587.837 396.18 587.312 396.065 586.812 395.835C586.322 395.595 585.922 395.28 585.612 394.89L586.542 394.095C587.112 394.705 587.737 395.01 588.417 395.01C588.847 395.01 589.192 394.93 589.452 394.77C589.712 394.6 589.842 394.355 589.842 394.035C589.842 393.795 589.747 393.58 589.557 393.39C589.367 393.19 589.172 393.045 588.972 392.955C588.772 392.855 588.477 392.73 588.087 392.58C587.307 392.29 586.717 391.965 586.317 391.605C585.917 391.245 585.717 390.77 585.717 390.18C585.717 389.56 585.957 389.07 586.437 388.71C586.927 388.34 587.547 388.155 588.297 388.155C589.367 388.155 590.227 388.54 590.877 389.31L589.977 390.06C589.507 389.57 588.942 389.325 588.282 389.325C587.892 389.325 587.582 389.4 587.352 389.55C587.122 389.7 587.007 389.91 587.007 390.18C587.007 390.33 587.042 390.47 587.112 390.6C587.192 390.72 587.327 390.835 587.517 390.945C587.717 391.055 587.872 391.14 587.982 391.2C588.102 391.25 588.317 391.335 588.627 391.455C589.437 391.745 590.052 392.075 590.472 392.445C590.902 392.815 591.117 393.335 591.117 394.005C591.117 394.685 590.872 395.22 590.382 395.61C589.892 395.99 589.227 396.18 588.387 396.18ZM595.223 396.18C594.143 396.18 593.603 395.57 593.603 394.35V389.475H592.358V388.335H593.603V385.8L594.908 385.17V388.335H596.798V389.475H594.908V393.915C594.908 394.255 594.963 394.515 595.073 394.695C595.183 394.875 595.393 394.965 595.703 394.965C596.043 394.965 596.423 394.83 596.843 394.56L596.693 395.835C596.253 396.065 595.763 396.18 595.223 396.18ZM599.934 395.895C599.734 396.095 599.489 396.195 599.199 396.195C598.909 396.195 598.664 396.095 598.464 395.895C598.264 395.685 598.164 395.445 598.164 395.175C598.164 394.895 598.264 394.655 598.464 394.455C598.664 394.245 598.909 394.14 599.199 394.14C599.489 394.14 599.734 394.245 599.934 394.455C600.144 394.665 600.249 394.905 600.249 395.175C600.249 395.445 600.144 395.685 599.934 395.895ZM611.902 396L611.002 393.435H606.832L605.947 396H604.582L608.302 385.5H609.517L613.237 396H611.902ZM610.597 392.28L609.247 388.395C609.077 387.905 608.967 387.55 608.917 387.33C608.807 387.72 608.697 388.075 608.587 388.395L607.222 392.28H610.597ZM615.318 396V385.785L616.623 385.17V396H615.318ZM619.244 396V385.785L620.549 385.17V396H619.244ZM628.365 389.475V396H627.06V389.475H625.875V388.335H627.06V387.06C627.06 386.44 627.22 385.995 627.54 385.725C627.86 385.455 628.255 385.32 628.725 385.32C629.225 385.32 629.7 385.44 630.15 385.68V386.775C629.74 386.585 629.375 386.49 629.055 386.49C628.775 386.49 628.59 386.56 628.5 386.7C628.41 386.84 628.365 387.035 628.365 387.285V388.335H630.15V389.475H628.365ZM634.385 396.18C633.345 396.18 632.515 395.81 631.895 395.07C631.285 394.32 630.98 393.35 630.98 392.16C630.98 390.91 631.29 389.93 631.91 389.22C632.53 388.51 633.355 388.155 634.385 388.155C635.305 388.155 636.06 388.465 636.65 389.085C637.25 389.695 637.55 390.6 637.55 391.8C637.55 392.08 637.535 392.37 637.505 392.67H632.315C632.365 393.37 632.58 393.935 632.96 394.365C633.35 394.785 633.835 394.995 634.415 394.995C635.055 394.995 635.605 394.765 636.065 394.305L636.86 395.19C636.2 395.85 635.375 396.18 634.385 396.18ZM632.3 391.56H636.23C636.22 390.77 636.03 390.2 635.66 389.85C635.3 389.49 634.875 389.31 634.385 389.31C633.795 389.31 633.31 389.5 632.93 389.88C632.55 390.25 632.34 390.81 632.3 391.56ZM642.456 396.18C641.416 396.18 640.586 395.81 639.966 395.07C639.356 394.32 639.051 393.35 639.051 392.16C639.051 390.91 639.361 389.93 639.981 389.22C640.601 388.51 641.426 388.155 642.456 388.155C643.376 388.155 644.131 388.465 644.721 389.085C645.321 389.695 645.621 390.6 645.621 391.8C645.621 392.08 645.606 392.37 645.576 392.67H640.386C640.436 393.37 640.651 393.935 641.031 394.365C641.421 394.785 641.906 394.995 642.486 394.995C643.126 394.995 643.676 394.765 644.136 394.305L644.931 395.19C644.271 395.85 643.446 396.18 642.456 396.18ZM640.371 391.56H644.301C644.291 390.77 644.101 390.2 643.731 389.85C643.371 389.49 642.946 389.31 642.456 389.31C641.866 389.31 641.381 389.5 641.001 389.88C640.621 390.25 640.411 390.81 640.371 391.56ZM650.287 396.18C649.317 396.18 648.547 395.82 647.977 395.1C647.407 394.38 647.122 393.4 647.122 392.16C647.122 390.91 647.407 389.93 647.977 389.22C648.557 388.51 649.327 388.155 650.287 388.155C651.037 388.155 651.682 388.395 652.222 388.875V385.785L653.527 385.17V396H652.222V395.4C651.722 395.92 651.077 396.18 650.287 396.18ZM650.467 394.965C651.227 394.965 651.812 394.62 652.222 393.93V390.33C651.812 389.68 651.227 389.355 650.467 389.355C649.817 389.355 649.317 389.6 648.967 390.09C648.617 390.57 648.442 391.26 648.442 392.16C648.442 392.97 648.622 393.64 648.982 394.17C649.352 394.7 649.847 394.965 650.467 394.965ZM659.265 396.18C658.535 396.18 657.88 395.9 657.3 395.34V396H655.995V385.785L657.3 385.17V388.995C657.81 388.435 658.45 388.155 659.22 388.155C660.18 388.155 660.95 388.51 661.53 389.22C662.11 389.93 662.4 390.91 662.4 392.16C662.4 393.45 662.12 394.445 661.56 395.145C661.01 395.835 660.245 396.18 659.265 396.18ZM659.085 394.965C659.735 394.965 660.225 394.72 660.555 394.23C660.895 393.73 661.065 393.04 661.065 392.16C661.065 391.25 660.895 390.555 660.555 390.075C660.225 389.595 659.735 389.355 659.085 389.355C658.685 389.355 658.325 389.46 658.005 389.67C657.685 389.88 657.45 390.115 657.3 390.375V393.93C657.49 394.25 657.745 394.505 658.065 394.695C658.385 394.875 658.725 394.965 659.085 394.965ZM668.813 396V395.295C668.183 395.885 667.458 396.18 666.638 396.18C665.828 396.18 665.178 395.96 664.688 395.52C664.208 395.07 663.968 394.43 663.968 393.6C663.968 392.77 664.243 392.14 664.793 391.71C665.343 391.28 666.023 391.065 666.833 391.065C667.573 391.065 668.233 391.23 668.813 391.56V391.02C668.813 390.38 668.668 389.935 668.378 389.685C668.098 389.425 667.688 389.295 667.148 389.295C666.378 389.295 665.633 389.55 664.913 390.06L664.538 388.965C665.358 388.425 666.283 388.155 667.313 388.155C669.133 388.155 670.043 389.075 670.043 390.915V396H668.813ZM666.833 395.025C667.583 395.025 668.243 394.69 668.813 394.02V392.7C668.263 392.36 667.663 392.19 667.013 392.19C666.483 392.19 666.048 392.31 665.708 392.55C665.368 392.79 665.198 393.14 665.198 393.6C665.198 394.03 665.338 394.375 665.618 394.635C665.908 394.895 666.313 395.025 666.833 395.025ZM675.043 396.18C674.063 396.18 673.288 395.83 672.718 395.13C672.148 394.42 671.863 393.435 671.863 392.175C671.863 390.915 672.148 389.93 672.718 389.22C673.298 388.51 674.093 388.155 675.103 388.155C676.463 388.155 677.358 388.75 677.788 389.94L676.558 390.39C676.298 389.71 675.818 389.37 675.118 389.37C674.478 389.37 673.998 389.615 673.678 390.105C673.358 390.595 673.198 391.285 673.198 392.175C673.198 393.055 673.358 393.74 673.678 394.23C673.998 394.71 674.463 394.95 675.073 394.95C675.873 394.95 676.393 394.57 676.633 393.81L677.848 394.215C677.658 394.845 677.318 395.33 676.828 395.67C676.348 396.01 675.753 396.18 675.043 396.18ZM686.038 396H684.613L682.243 391.365L681.118 392.535V396H679.813V385.785L681.118 385.17V390.975L683.608 388.335H685.168L683.158 390.42L686.038 396ZM692.557 386.715C692.397 386.865 692.202 386.94 691.972 386.94C691.742 386.94 691.547 386.86 691.387 386.7C691.237 386.54 691.162 386.35 691.162 386.13C691.162 385.9 691.242 385.705 691.402 385.545C691.562 385.375 691.752 385.29 691.972 385.29C692.202 385.29 692.397 385.375 692.557 385.545C692.717 385.705 692.797 385.9 692.797 386.13C692.797 386.36 692.717 386.555 692.557 386.715ZM691.327 396V388.335H692.632V396H691.327ZM697.386 396.18C696.836 396.18 696.311 396.065 695.811 395.835C695.321 395.595 694.921 395.28 694.611 394.89L695.541 394.095C696.111 394.705 696.736 395.01 697.416 395.01C697.846 395.01 698.191 394.93 698.451 394.77C698.711 394.6 698.841 394.355 698.841 394.035C698.841 393.795 698.746 393.58 698.556 393.39C698.366 393.19 698.171 393.045 697.971 392.955C697.771 392.855 697.476 392.73 697.086 392.58C696.306 392.29 695.716 391.965 695.316 391.605C694.916 391.245 694.716 390.77 694.716 390.18C694.716 389.56 694.956 389.07 695.436 388.71C695.926 388.34 696.546 388.155 697.296 388.155C698.366 388.155 699.226 388.54 699.876 389.31L698.976 390.06C698.506 389.57 697.941 389.325 697.281 389.325C696.891 389.325 696.581 389.4 696.351 389.55C696.121 389.7 696.006 389.91 696.006 390.18C696.006 390.33 696.041 390.47 696.111 390.6C696.191 390.72 696.326 390.835 696.516 390.945C696.716 391.055 696.871 391.14 696.981 391.2C697.101 391.25 697.316 391.335 697.626 391.455C698.436 391.745 699.051 392.075 699.471 392.445C699.901 392.815 700.116 393.335 700.116 394.005C700.116 394.685 699.871 395.22 699.381 395.61C698.891 395.99 698.226 396.18 697.386 396.18ZM710.078 396V395.295C709.448 395.885 708.723 396.18 707.903 396.18C707.093 396.18 706.443 395.96 705.953 395.52C705.473 395.07 705.233 394.43 705.233 393.6C705.233 392.77 705.508 392.14 706.058 391.71C706.608 391.28 707.288 391.065 708.098 391.065C708.838 391.065 709.498 391.23 710.078 391.56V391.02C710.078 390.38 709.933 389.935 709.643 389.685C709.363 389.425 708.953 389.295 708.413 389.295C707.643 389.295 706.898 389.55 706.178 390.06L705.803 388.965C706.623 388.425 707.548 388.155 708.578 388.155C710.398 388.155 711.308 389.075 711.308 390.915V396H710.078ZM708.098 395.025C708.848 395.025 709.508 394.69 710.078 394.02V392.7C709.528 392.36 708.928 392.19 708.278 392.19C707.748 392.19 707.313 392.31 706.973 392.55C706.633 392.79 706.463 393.14 706.463 393.6C706.463 394.03 706.603 394.375 706.883 394.635C707.173 394.895 707.578 395.025 708.098 395.025ZM716.848 396.18C716.048 396.18 715.393 395.88 714.883 395.28V398.415L713.578 399.03V388.335H714.883V388.98C715.433 388.43 716.088 388.155 716.848 388.155C717.818 388.155 718.588 388.515 719.158 389.235C719.728 389.955 720.013 390.93 720.013 392.16C720.013 393.41 719.723 394.395 719.143 395.115C718.563 395.825 717.798 396.18 716.848 396.18ZM716.683 394.965C717.323 394.965 717.813 394.725 718.153 394.245C718.503 393.755 718.678 393.06 718.678 392.16C718.678 391.31 718.498 390.63 718.138 390.12C717.788 389.61 717.303 389.355 716.683 389.355C715.873 389.355 715.273 389.7 714.883 390.39V393.93C715.413 394.62 716.013 394.965 716.683 394.965ZM725.315 396.18C724.515 396.18 723.86 395.88 723.35 395.28V398.415L722.045 399.03V388.335H723.35V388.98C723.9 388.43 724.555 388.155 725.315 388.155C726.285 388.155 727.055 388.515 727.625 389.235C728.195 389.955 728.48 390.93 728.48 392.16C728.48 393.41 728.19 394.395 727.61 395.115C727.03 395.825 726.265 396.18 725.315 396.18ZM725.15 394.965C725.79 394.965 726.28 394.725 726.62 394.245C726.97 393.755 727.145 393.06 727.145 392.16C727.145 391.31 726.965 390.63 726.605 390.12C726.255 389.61 725.77 389.355 725.15 389.355C724.34 389.355 723.74 389.7 723.35 390.39V393.93C723.88 394.62 724.48 394.965 725.15 394.965ZM730.512 396V388.335H731.817V389.34C732.177 388.55 732.782 388.155 733.632 388.155C734.112 388.155 734.507 388.285 734.817 388.545L734.622 389.775C734.302 389.555 733.937 389.445 733.527 389.445C733.077 389.445 732.677 389.62 732.327 389.97C731.987 390.32 731.817 390.89 731.817 391.68V396H730.512ZM739.297 396.18C738.257 396.18 737.427 395.81 736.807 395.07C736.197 394.32 735.892 393.35 735.892 392.16C735.892 390.91 736.202 389.93 736.822 389.22C737.442 388.51 738.267 388.155 739.297 388.155C740.217 388.155 740.972 388.465 741.562 389.085C742.162 389.695 742.462 390.6 742.462 391.8C742.462 392.08 742.447 392.37 742.417 392.67H737.227C737.277 393.37 737.492 393.935 737.872 394.365C738.262 394.785 738.747 394.995 739.327 394.995C739.967 394.995 740.517 394.765 740.977 394.305L741.772 395.19C741.112 395.85 740.287 396.18 739.297 396.18ZM737.212 391.56H741.142C741.132 390.77 740.942 390.2 740.572 389.85C740.212 389.49 739.787 389.31 739.297 389.31C738.707 389.31 738.222 389.5 737.842 389.88C737.462 390.25 737.252 390.81 737.212 391.56ZM747.143 396.18C746.163 396.18 745.388 395.83 744.818 395.13C744.248 394.42 743.963 393.435 743.963 392.175C743.963 390.915 744.248 389.93 744.818 389.22C745.398 388.51 746.193 388.155 747.203 388.155C748.563 388.155 749.458 388.75 749.888 389.94L748.658 390.39C748.398 389.71 747.918 389.37 747.218 389.37C746.578 389.37 746.098 389.615 745.778 390.105C745.458 390.595 745.298 391.285 745.298 392.175C745.298 393.055 745.458 393.74 745.778 394.23C746.098 394.71 746.563 394.95 747.173 394.95C747.973 394.95 748.493 394.57 748.733 393.81L749.948 394.215C749.758 394.845 749.418 395.33 748.928 395.67C748.448 396.01 747.853 396.18 747.143 396.18ZM753.158 386.715C752.998 386.865 752.803 386.94 752.573 386.94C752.343 386.94 752.148 386.86 751.988 386.7C751.838 386.54 751.763 386.35 751.763 386.13C751.763 385.9 751.843 385.705 752.003 385.545C752.163 385.375 752.353 385.29 752.573 385.29C752.803 385.29 752.998 385.375 753.158 385.545C753.318 385.705 753.398 385.9 753.398 386.13C753.398 386.36 753.318 386.555 753.158 386.715ZM751.928 396V388.335H753.233V396H751.928ZM760.117 396V395.295C759.487 395.885 758.762 396.18 757.942 396.18C757.132 396.18 756.482 395.96 755.992 395.52C755.512 395.07 755.272 394.43 755.272 393.6C755.272 392.77 755.547 392.14 756.097 391.71C756.647 391.28 757.327 391.065 758.137 391.065C758.877 391.065 759.537 391.23 760.117 391.56V391.02C760.117 390.38 759.972 389.935 759.682 389.685C759.402 389.425 758.992 389.295 758.452 389.295C757.682 389.295 756.937 389.55 756.217 390.06L755.842 388.965C756.662 388.425 757.587 388.155 758.617 388.155C760.437 388.155 761.347 389.075 761.347 390.915V396H760.117ZM758.137 395.025C758.887 395.025 759.547 394.69 760.117 394.02V392.7C759.567 392.36 758.967 392.19 758.317 392.19C757.787 392.19 757.352 392.31 757.012 392.55C756.672 392.79 756.502 393.14 756.502 393.6C756.502 394.03 756.642 394.375 756.922 394.635C757.212 394.895 757.617 395.025 758.137 395.025ZM765.687 396.18C764.607 396.18 764.067 395.57 764.067 394.35V389.475H762.822V388.335H764.067V385.8L765.372 385.17V388.335H767.262V389.475H765.372V393.915C765.372 394.255 765.427 394.515 765.537 394.695C765.647 394.875 765.857 394.965 766.167 394.965C766.507 394.965 766.887 394.83 767.307 394.56L767.157 395.835C766.717 396.065 766.227 396.18 765.687 396.18ZM772.036 396.18C770.996 396.18 770.166 395.81 769.546 395.07C768.936 394.32 768.631 393.35 768.631 392.16C768.631 390.91 768.941 389.93 769.561 389.22C770.181 388.51 771.006 388.155 772.036 388.155C772.956 388.155 773.711 388.465 774.301 389.085C774.901 389.695 775.201 390.6 775.201 391.8C775.201 392.08 775.186 392.37 775.156 392.67H769.966C770.016 393.37 770.231 393.935 770.611 394.365C771.001 394.785 771.486 394.995 772.066 394.995C772.706 394.995 773.256 394.765 773.716 394.305L774.511 395.19C773.851 395.85 773.026 396.18 772.036 396.18ZM769.951 391.56H773.881C773.871 390.77 773.681 390.2 773.311 389.85C772.951 389.49 772.526 389.31 772.036 389.31C771.446 389.31 770.961 389.5 770.581 389.88C770.201 390.25 769.991 390.81 769.951 391.56ZM779.867 396.18C778.897 396.18 778.127 395.82 777.557 395.1C776.987 394.38 776.702 393.4 776.702 392.16C776.702 390.91 776.987 389.93 777.557 389.22C778.137 388.51 778.907 388.155 779.867 388.155C780.617 388.155 781.262 388.395 781.802 388.875V385.785L783.107 385.17V396H781.802V395.4C781.302 395.92 780.657 396.18 779.867 396.18ZM780.047 394.965C780.807 394.965 781.392 394.62 781.802 393.93V390.33C781.392 389.68 780.807 389.355 780.047 389.355C779.397 389.355 778.897 389.6 778.547 390.09C778.197 390.57 778.022 391.26 778.022 392.16C778.022 392.97 778.202 393.64 778.562 394.17C778.932 394.7 779.427 394.965 780.047 394.965ZM791.175 396.18C790.095 396.18 789.555 395.57 789.555 394.35V389.475H788.31V388.335H789.555V385.8L790.86 385.17V388.335H792.75V389.475H790.86V393.915C790.86 394.255 790.915 394.515 791.025 394.695C791.135 394.875 791.345 394.965 791.655 394.965C791.995 394.965 792.375 394.83 792.795 394.56L792.645 395.835C792.205 396.065 791.715 396.18 791.175 396.18ZM799.984 395.115C799.374 395.825 798.549 396.18 797.509 396.18C796.469 396.18 795.644 395.825 795.034 395.115C794.424 394.405 794.119 393.425 794.119 392.175C794.119 390.925 794.424 389.945 795.034 389.235C795.644 388.515 796.469 388.155 797.509 388.155C798.549 388.155 799.374 388.51 799.984 389.22C800.594 389.93 800.899 390.91 800.899 392.16C800.899 393.41 800.594 394.395 799.984 395.115ZM795.979 394.23C796.349 394.72 796.859 394.965 797.509 394.965C798.159 394.965 798.664 394.72 799.024 394.23C799.394 393.73 799.579 393.04 799.579 392.16C799.579 391.29 799.394 390.605 799.024 390.105C798.664 389.605 798.159 389.355 797.509 389.355C796.859 389.355 796.349 389.605 795.979 390.105C795.619 390.595 795.439 391.285 795.439 392.175C795.439 393.045 795.619 393.73 795.979 394.23ZM806.464 396V385.77L807.769 385.17V389.13C808.239 388.48 808.899 388.155 809.749 388.155C810.649 388.155 811.329 388.43 811.789 388.98C812.259 389.52 812.494 390.39 812.494 391.59V396H811.189V391.365C811.189 390.675 811.039 390.17 810.739 389.85C810.449 389.52 810.049 389.355 809.539 389.355C808.359 389.355 807.769 390.015 807.769 391.335V396H806.464ZM817.871 396.18C816.831 396.18 816.001 395.81 815.381 395.07C814.771 394.32 814.466 393.35 814.466 392.16C814.466 390.91 814.776 389.93 815.396 389.22C816.016 388.51 816.841 388.155 817.871 388.155C818.791 388.155 819.546 388.465 820.136 389.085C820.736 389.695 821.036 390.6 821.036 391.8C821.036 392.08 821.021 392.37 820.991 392.67H815.801C815.851 393.37 816.066 393.935 816.446 394.365C816.836 394.785 817.321 394.995 817.901 394.995C818.541 394.995 819.091 394.765 819.551 394.305L820.346 395.19C819.686 395.85 818.861 396.18 817.871 396.18ZM815.786 391.56H819.716C819.706 390.77 819.516 390.2 819.146 389.85C818.786 389.49 818.361 389.31 817.871 389.31C817.281 389.31 816.796 389.5 816.416 389.88C816.036 390.25 815.826 390.81 815.786 391.56ZM823.062 396V385.785L824.367 385.17V396H823.062ZM830.183 396.18C829.383 396.18 828.728 395.88 828.218 395.28V398.415L826.913 399.03V388.335H828.218V388.98C828.768 388.43 829.423 388.155 830.183 388.155C831.153 388.155 831.923 388.515 832.493 389.235C833.063 389.955 833.348 390.93 833.348 392.16C833.348 393.41 833.058 394.395 832.478 395.115C831.898 395.825 831.133 396.18 830.183 396.18ZM830.018 394.965C830.658 394.965 831.148 394.725 831.488 394.245C831.838 393.755 832.013 393.06 832.013 392.16C832.013 391.31 831.833 390.63 831.473 390.12C831.123 389.61 830.638 389.355 830.018 389.355C829.208 389.355 828.608 389.7 828.218 390.39V393.93C828.748 394.62 829.348 394.965 830.018 394.965ZM843.56 396V395.265C843.09 395.875 842.445 396.18 841.625 396.18C840.695 396.18 839.995 395.91 839.525 395.37C839.065 394.83 838.835 393.96 838.835 392.76V388.335H840.14V392.955C840.14 393.645 840.285 394.155 840.575 394.485C840.875 394.805 841.28 394.965 841.79 394.965C842.97 394.965 843.56 394.305 843.56 392.985V388.335H844.865V396H843.56ZM849.627 396.18C849.077 396.18 848.552 396.065 848.052 395.835C847.562 395.595 847.162 395.28 846.852 394.89L847.782 394.095C848.352 394.705 848.977 395.01 849.657 395.01C850.087 395.01 850.432 394.93 850.692 394.77C850.952 394.6 851.082 394.355 851.082 394.035C851.082 393.795 850.987 393.58 850.797 393.39C850.607 393.19 850.412 393.045 850.212 392.955C850.012 392.855 849.717 392.73 849.327 392.58C848.547 392.29 847.957 391.965 847.557 391.605C847.157 391.245 846.957 390.77 846.957 390.18C846.957 389.56 847.197 389.07 847.677 388.71C848.167 388.34 848.787 388.155 849.537 388.155C850.607 388.155 851.467 388.54 852.117 389.31L851.217 390.06C850.747 389.57 850.182 389.325 849.522 389.325C849.132 389.325 848.822 389.4 848.592 389.55C848.362 389.7 848.247 389.91 848.247 390.18C848.247 390.33 848.282 390.47 848.352 390.6C848.432 390.72 848.567 390.835 848.757 390.945C848.957 391.055 849.112 391.14 849.222 391.2C849.342 391.25 849.557 391.335 849.867 391.455C850.677 391.745 851.292 392.075 851.712 392.445C852.142 392.815 852.357 393.335 852.357 394.005C852.357 394.685 852.112 395.22 851.622 395.61C851.132 395.99 850.467 396.18 849.627 396.18ZM548.49 410.715C548.33 410.865 548.135 410.94 547.905 410.94C547.675 410.94 547.48 410.86 547.32 410.7C547.17 410.54 547.095 410.35 547.095 410.13C547.095 409.9 547.175 409.705 547.335 409.545C547.495 409.375 547.685 409.29 547.905 409.29C548.135 409.29 548.33 409.375 548.49 409.545C548.65 409.705 548.73 409.9 548.73 410.13C548.73 410.36 548.65 410.555 548.49 410.715ZM547.26 420V412.335H548.565V420H547.26ZM560.039 420V415.35C560.039 414.02 559.524 413.355 558.494 413.355C558.004 413.355 557.604 413.545 557.294 413.925C556.994 414.295 556.844 414.785 556.844 415.395V420H555.539V415.35C555.539 414.02 555.029 413.355 554.009 413.355C553.499 413.355 553.094 413.535 552.794 413.895C552.504 414.245 552.359 414.725 552.359 415.335V420H551.054V412.335H552.359V413.055C552.809 412.455 553.479 412.155 554.369 412.155C554.799 412.155 555.194 412.255 555.554 412.455C555.924 412.645 556.214 412.92 556.424 413.28C556.914 412.53 557.654 412.155 558.644 412.155C559.444 412.155 560.094 412.4 560.594 412.89C561.094 413.38 561.344 414.075 561.344 414.975V420H560.039ZM567.009 420.18C566.209 420.18 565.554 419.88 565.044 419.28V422.415L563.739 423.03V412.335H565.044V412.98C565.594 412.43 566.249 412.155 567.009 412.155C567.979 412.155 568.749 412.515 569.319 413.235C569.889 413.955 570.174 414.93 570.174 416.16C570.174 417.41 569.884 418.395 569.304 419.115C568.724 419.825 567.959 420.18 567.009 420.18ZM566.844 418.965C567.484 418.965 567.974 418.725 568.314 418.245C568.664 417.755 568.839 417.06 568.839 416.16C568.839 415.31 568.659 414.63 568.299 414.12C567.949 413.61 567.464 413.355 566.844 413.355C566.034 413.355 565.434 413.7 565.044 414.39V417.93C565.574 418.62 566.174 418.965 566.844 418.965ZM572.206 420V412.335H573.511V413.34C573.871 412.55 574.476 412.155 575.326 412.155C575.806 412.155 576.201 412.285 576.511 412.545L576.316 413.775C575.996 413.555 575.631 413.445 575.221 413.445C574.771 413.445 574.371 413.62 574.021 413.97C573.681 414.32 573.511 414.89 573.511 415.68V420H572.206ZM583.451 419.115C582.841 419.825 582.016 420.18 580.976 420.18C579.936 420.18 579.111 419.825 578.501 419.115C577.891 418.405 577.586 417.425 577.586 416.175C577.586 414.925 577.891 413.945 578.501 413.235C579.111 412.515 579.936 412.155 580.976 412.155C582.016 412.155 582.841 412.51 583.451 413.22C584.061 413.93 584.366 414.91 584.366 416.16C584.366 417.41 584.061 418.395 583.451 419.115ZM579.446 418.23C579.816 418.72 580.326 418.965 580.976 418.965C581.626 418.965 582.131 418.72 582.491 418.23C582.861 417.73 583.046 417.04 583.046 416.16C583.046 415.29 582.861 414.605 582.491 414.105C582.131 413.605 581.626 413.355 580.976 413.355C580.326 413.355 579.816 413.605 579.446 414.105C579.086 414.595 578.906 415.285 578.906 416.175C578.906 417.045 579.086 417.73 579.446 418.23ZM588.455 420L585.65 412.335H586.97L588.785 417.45C588.915 417.83 588.995 418.08 589.025 418.2C589.055 418.08 589.135 417.83 589.265 417.45L591.05 412.335H592.355L589.55 420H588.455ZM597.031 420.18C595.991 420.18 595.161 419.81 594.541 419.07C593.931 418.32 593.626 417.35 593.626 416.16C593.626 414.91 593.936 413.93 594.556 413.22C595.176 412.51 596.001 412.155 597.031 412.155C597.951 412.155 598.706 412.465 599.296 413.085C599.896 413.695 600.196 414.6 600.196 415.8C600.196 416.08 600.181 416.37 600.151 416.67H594.961C595.011 417.37 595.226 417.935 595.606 418.365C595.996 418.785 596.481 418.995 597.061 418.995C597.701 418.995 598.251 418.765 598.711 418.305L599.506 419.19C598.846 419.85 598.021 420.18 597.031 420.18ZM594.946 415.56H598.876C598.866 414.77 598.676 414.2 598.306 413.85C597.946 413.49 597.521 413.31 597.031 413.31C596.441 413.31 595.956 413.5 595.576 413.88C595.196 414.25 594.986 414.81 594.946 415.56ZM611.093 419.115C610.483 419.825 609.658 420.18 608.618 420.18C607.578 420.18 606.753 419.825 606.143 419.115C605.533 418.405 605.228 417.425 605.228 416.175C605.228 414.925 605.533 413.945 606.143 413.235C606.753 412.515 607.578 412.155 608.618 412.155C609.658 412.155 610.483 412.51 611.093 413.22C611.703 413.93 612.008 414.91 612.008 416.16C612.008 417.41 611.703 418.395 611.093 419.115ZM607.088 418.23C607.458 418.72 607.968 418.965 608.618 418.965C609.268 418.965 609.773 418.72 610.133 418.23C610.503 417.73 610.688 417.04 610.688 416.16C610.688 415.29 610.503 414.605 610.133 414.105C609.773 413.605 609.268 413.355 608.618 413.355C607.968 413.355 607.458 413.605 607.088 414.105C606.728 414.595 606.548 415.285 606.548 416.175C606.548 417.045 606.728 417.73 607.088 418.23ZM618.692 420V419.265C618.222 419.875 617.577 420.18 616.757 420.18C615.827 420.18 615.127 419.91 614.657 419.37C614.197 418.83 613.967 417.96 613.967 416.76V412.335H615.272V416.955C615.272 417.645 615.417 418.155 615.707 418.485C616.007 418.805 616.412 418.965 616.922 418.965C618.102 418.965 618.692 418.305 618.692 416.985V412.335H619.997V420H618.692ZM622.494 420V412.335H623.799V413.34C624.159 412.55 624.764 412.155 625.614 412.155C626.094 412.155 626.489 412.285 626.799 412.545L626.604 413.775C626.284 413.555 625.919 413.445 625.509 413.445C625.059 413.445 624.659 413.62 624.309 413.97C623.969 414.32 623.799 414.89 623.799 415.68V420H622.494ZM637.269 419.115C636.659 419.825 635.834 420.18 634.794 420.18C633.754 420.18 632.929 419.825 632.319 419.115C631.709 418.405 631.404 417.425 631.404 416.175C631.404 414.925 631.709 413.945 632.319 413.235C632.929 412.515 633.754 412.155 634.794 412.155C635.834 412.155 636.659 412.51 637.269 413.22C637.879 413.93 638.184 414.91 638.184 416.16C638.184 417.41 637.879 418.395 637.269 419.115ZM633.264 418.23C633.634 418.72 634.144 418.965 634.794 418.965C635.444 418.965 635.949 418.72 636.309 418.23C636.679 417.73 636.864 417.04 636.864 416.16C636.864 415.29 636.679 414.605 636.309 414.105C635.949 413.605 635.444 413.355 634.794 413.355C634.144 413.355 633.634 413.605 633.264 414.105C632.904 414.595 632.724 415.285 632.724 416.175C632.724 417.045 632.904 417.73 633.264 418.23ZM641.959 413.475V420H640.654V413.475H639.469V412.335H640.654V411.06C640.654 410.44 640.814 409.995 641.134 409.725C641.454 409.455 641.849 409.32 642.319 409.32C642.819 409.32 643.294 409.44 643.744 409.68V410.775C643.334 410.585 642.969 410.49 642.649 410.49C642.369 410.49 642.184 410.56 642.094 410.7C642.004 410.84 641.959 411.035 641.959 411.285V412.335H643.744V413.475H641.959ZM647.071 413.475V420H645.766V413.475H644.581V412.335H645.766V411.06C645.766 410.44 645.926 409.995 646.246 409.725C646.566 409.455 646.961 409.32 647.431 409.32C647.931 409.32 648.406 409.44 648.856 409.68V410.775C648.446 410.585 648.081 410.49 647.761 410.49C647.481 410.49 647.296 410.56 647.206 410.7C647.116 410.84 647.071 411.035 647.071 411.285V412.335H648.856V413.475H647.071ZM653.091 420.18C652.051 420.18 651.221 419.81 650.601 419.07C649.991 418.32 649.686 417.35 649.686 416.16C649.686 414.91 649.996 413.93 650.616 413.22C651.236 412.51 652.061 412.155 653.091 412.155C654.011 412.155 654.766 412.465 655.356 413.085C655.956 413.695 656.256 414.6 656.256 415.8C656.256 416.08 656.241 416.37 656.211 416.67H651.021C651.071 417.37 651.286 417.935 651.666 418.365C652.056 418.785 652.541 418.995 653.121 418.995C653.761 418.995 654.311 418.765 654.771 418.305L655.566 419.19C654.906 419.85 654.081 420.18 653.091 420.18ZM651.006 415.56H654.936C654.926 414.77 654.736 414.2 654.366 413.85C654.006 413.49 653.581 413.31 653.091 413.31C652.501 413.31 652.016 413.5 651.636 413.88C651.256 414.25 651.046 414.81 651.006 415.56ZM658.207 420V412.335H659.512V413.34C659.872 412.55 660.477 412.155 661.327 412.155C661.807 412.155 662.202 412.285 662.512 412.545L662.317 413.775C661.997 413.555 661.632 413.445 661.222 413.445C660.772 413.445 660.372 413.62 660.022 413.97C659.682 414.32 659.512 414.89 659.512 415.68V420H658.207ZM665.209 410.715C665.049 410.865 664.854 410.94 664.624 410.94C664.394 410.94 664.199 410.86 664.039 410.7C663.889 410.54 663.814 410.35 663.814 410.13C663.814 409.9 663.894 409.705 664.054 409.545C664.214 409.375 664.404 409.29 664.624 409.29C664.854 409.29 665.049 409.375 665.209 409.545C665.369 409.705 665.449 409.9 665.449 410.13C665.449 410.36 665.369 410.555 665.209 410.715ZM663.979 420V412.335H665.284V420H663.979ZM672.497 420V415.365C672.497 414.675 672.347 414.17 672.047 413.85C671.757 413.52 671.357 413.355 670.847 413.355C669.667 413.355 669.077 414.015 669.077 415.335V420H667.772V412.335H669.077V413.115C669.547 412.475 670.207 412.155 671.057 412.155C671.957 412.155 672.637 412.43 673.097 412.98C673.567 413.52 673.802 414.39 673.802 415.59V420H672.497ZM678.579 423.105L677.949 422.085C679.059 422.025 679.824 421.83 680.244 421.5C680.674 421.18 680.889 420.74 680.889 420.18V419.25C680.439 419.87 679.779 420.18 678.909 420.18C678.009 420.18 677.259 419.83 676.659 419.13C676.069 418.43 675.774 417.44 675.774 416.16C675.774 414.92 676.064 413.945 676.644 413.235C677.234 412.515 678.004 412.155 678.954 412.155C679.754 412.155 680.399 412.425 680.889 412.965V412.335H682.194V419.685C682.194 420.855 681.879 421.7 681.249 422.22C680.629 422.74 679.739 423.035 678.579 423.105ZM679.179 418.965C679.499 418.965 679.814 418.87 680.124 418.68C680.444 418.48 680.699 418.215 680.889 417.885V414.375C680.709 414.075 680.454 413.83 680.124 413.64C679.794 413.45 679.479 413.355 679.179 413.355C678.499 413.355 677.979 413.6 677.619 414.09C677.269 414.57 677.094 415.26 677.094 416.16C677.094 417.03 677.284 417.715 677.664 418.215C678.054 418.715 678.559 418.965 679.179 418.965ZM685.277 417.105L684.842 412.605V409.32H686.162V412.605L685.712 417.105H685.277ZM686.222 419.895C686.022 420.095 685.777 420.195 685.487 420.195C685.197 420.195 684.952 420.095 684.752 419.895C684.552 419.695 684.452 419.455 684.452 419.175C684.452 418.895 684.552 418.655 684.752 418.455C684.952 418.245 685.197 418.14 685.487 418.14C685.777 418.14 686.022 418.245 686.222 418.455C686.422 418.655 686.522 418.895 686.522 419.175C686.522 419.445 686.422 419.685 686.222 419.895Z" fill="#969FAD"/>
<g clip-path="url(#clip2_0_1469)">
<circle cx="571.5" cy="476.5" r="25.5" fill="#262E38"/>
<path d="M571.069 482V473.64H569.349V472.016C569.706 472.016 570.029 471.979 570.317 471.904C570.605 471.829 570.848 471.704 571.045 471.528C571.248 471.352 571.4 471.109 571.501 470.8H573.141V482H571.069Z" fill="#969FAD"/>
</g>
<g clip-path="url(#clip3_0_1469)">
<circle cx="643.5" cy="476.5" r="25.5" fill="#262E38"/>
<path d="M639.141 482C639.141 481.179 639.24 480.459 639.437 479.84C639.635 479.216 639.907 478.667 640.253 478.192C640.6 477.717 641 477.299 641.453 476.936C641.912 476.573 642.397 476.248 642.909 475.96C643.213 475.789 643.499 475.608 643.765 475.416C644.032 475.224 644.248 475.008 644.413 474.768C644.579 474.528 644.661 474.251 644.661 473.936C644.661 473.515 644.52 473.181 644.237 472.936C643.96 472.685 643.587 472.56 643.117 472.56C642.627 472.56 642.221 472.677 641.901 472.912C641.587 473.141 641.341 473.461 641.165 473.872L639.317 473.032C639.616 472.296 640.107 471.709 640.789 471.272C641.477 470.829 642.245 470.608 643.093 470.608C643.861 470.608 644.515 470.755 645.053 471.048C645.597 471.336 646.011 471.728 646.293 472.224C646.581 472.715 646.725 473.269 646.725 473.888C646.725 474.539 646.608 475.083 646.373 475.52C646.144 475.957 645.829 476.336 645.429 476.656C645.035 476.976 644.592 477.28 644.101 477.568C643.616 477.856 643.203 478.123 642.861 478.368C642.525 478.608 642.251 478.859 642.037 479.12C641.824 479.376 641.664 479.672 641.557 480.008H646.821V482H639.141Z" fill="#969FAD"/>
</g>
<g clip-path="url(#clip4_0_1469)">
<circle cx="716.5" cy="476.5" r="25.5" fill="#262E38"/>
<path d="M716.939 482.192C715.995 482.192 715.179 481.965 714.491 481.512C713.808 481.053 713.302 480.4 712.971 479.552L714.827 478.8C715.302 479.755 716.006 480.232 716.939 480.232C717.483 480.232 717.91 480.099 718.219 479.832C718.534 479.565 718.691 479.2 718.691 478.736C718.691 478.299 718.531 477.952 718.211 477.696C717.891 477.435 717.462 477.304 716.923 477.304H715.843V475.328H716.891C717.328 475.328 717.672 475.203 717.923 474.952C718.179 474.696 718.307 474.355 718.307 473.928C718.307 473.523 718.176 473.195 717.915 472.944C717.654 472.688 717.312 472.56 716.891 472.56C716.528 472.56 716.2 472.656 715.907 472.848C715.619 473.035 715.376 473.309 715.179 473.672L713.307 472.944C713.654 472.203 714.139 471.629 714.763 471.224C715.392 470.813 716.107 470.608 716.907 470.608C717.59 470.608 718.192 470.741 718.715 471.008C719.238 471.269 719.646 471.637 719.939 472.112C720.232 472.581 720.379 473.123 720.379 473.736C720.379 474.253 720.259 474.728 720.019 475.16C719.784 475.587 719.454 475.933 719.027 476.2C719.566 476.413 719.99 476.765 720.299 477.256C720.608 477.747 720.763 478.312 720.763 478.952C720.763 479.581 720.6 480.141 720.275 480.632C719.95 481.117 719.496 481.499 718.915 481.776C718.339 482.053 717.68 482.192 716.939 482.192Z" fill="#969FAD"/>
</g>
<g clip-path="url(#clip5_0_1469)">
<circle cx="788.5" cy="476.5" r="25.5" fill="#262E38"/>
<path d="M788.843 482V479.68H783.123V478.384L788.883 470.8H790.867V477.768H792.283V479.68H790.867V482H788.843ZM785.811 477.768H788.843V473.672L785.811 477.768Z" fill="#969FAD"/>
</g>
<g clip-path="url(#clip6_0_1469)">
<circle cx="861.5" cy="476.5" r="25.5" fill="#262E38"/>
<path d="M860.613 482.192C860.048 482.192 859.539 482.133 859.085 482.016C858.632 481.904 858.237 481.76 857.901 481.584C857.565 481.403 857.291 481.221 857.077 481.04L858.189 479.416C858.381 479.56 858.595 479.696 858.829 479.824C859.069 479.947 859.333 480.048 859.621 480.128C859.915 480.208 860.243 480.248 860.605 480.248C861.037 480.248 861.416 480.168 861.741 480.008C862.072 479.848 862.331 479.621 862.517 479.328C862.704 479.035 862.797 478.688 862.797 478.288C862.797 477.941 862.731 477.637 862.597 477.376C862.469 477.109 862.283 476.901 862.037 476.752C861.797 476.597 861.501 476.52 861.149 476.52C860.707 476.52 860.336 476.6 860.037 476.76C859.739 476.915 859.48 477.117 859.261 477.368L857.421 476.48L857.805 470.8H864.157V472.776H859.693L859.493 474.984C859.749 474.856 860.019 474.755 860.301 474.68C860.584 474.6 860.885 474.56 861.205 474.56C861.989 474.56 862.653 474.725 863.197 475.056C863.747 475.387 864.163 475.832 864.445 476.392C864.733 476.952 864.877 477.576 864.877 478.264C864.877 479.043 864.693 479.728 864.325 480.32C863.963 480.907 863.461 481.365 862.821 481.696C862.181 482.027 861.445 482.192 860.613 482.192Z" fill="#969FAD"/>
</g>
</g>
<defs>
<radialGradient id="paint0_radial_0_1469" cx="0" cy="0" r="1" gradientUnits="userSpaceOnUse" gradientTransform="translate(720 195) rotate(90) scale(411.678 407.72)">
<stop stop-color="#232A34"/>
<stop offset="1" stop-color="#181E27"/>
</radialGradient>
<clipPath id="clip0_0_1469">
<rect width="412" height="416" fill="white" transform="translate(514 195)"/>
</clipPath>
<clipPath id="clip1_0_1469">
<rect width="341" height="45" fill="white" transform="translate(546 534)"/>
</clipPath>
<clipPath id="clip2_0_1469">
<rect width="51" height="51" fill="white" transform="translate(546 451)"/>
</clipPath>
<clipPath id="clip3_0_1469">
<rect width="51" height="51" fill="white" transform="translate(618 451)"/>
</clipPath>
<clipPath id="clip4_0_1469">
<rect width="51" height="51" fill="white" transform="translate(691 451)"/>
</clipPath>
<clipPath id="clip5_0_1469">
<rect width="51" height="51" fill="white" transform="translate(763 451)"/>
</clipPath>
<clipPath id="clip6_0_1469">
<rect width="51" height="51" fill="white" transform="translate(836 451)"/>
</clipPath>
</defs>
</svg>
